<?xml version="1.0" standalone="no"?>
<!DOCTYPE svg PUBLIC "-//W3C//DTD SVG 20010904//EN"
 "http://www.w3.org/TR/2001/REC-SVG-20010904/DTD/svg10.dtd">
<svg version="1.0" xmlns="http://www.w3.org/2000/svg"
 width="40" height="40" viewBox="135 200 330 150"
 preserveAspectRatio="xMidYMid meet" style="background: #7a6f90">

<g transform="translate(0.000000,582.000000) scale(0.100000,-0.100000)"
 stroke="none">
<path fill="#e9e7da" d="M0 2910 l0 -2910 3090 0 3090 0 0 2910 0 2910 -3090 0 -3090 0 0
-2910z m3121 1686 c83 7 112 -6 102 -46 -4 -15 2 -22 22 -30 47 -18 70 -13 82
20 14 38 33 38 109 1 32 -16 81 -31 108 -35 70 -9 99 -30 91 -65 -7 -32 7 -47
53 -60 26 -8 31 -6 41 15 6 13 17 24 24 24 17 0 97 -59 97 -71 0 -6 27 -23 61
-39 63 -30 99 -56 99 -73 0 -6 -7 -19 -16 -29 -16 -17 -15 -20 22 -54 38 -36
38 -36 52 -15 8 11 20 21 26 21 17 0 60 -48 82 -92 11 -20 37 -51 59 -68 36
-29 64 -64 65 -82 0 -4 -9 -16 -21 -27 -18 -16 -19 -22 -9 -43 24 -45 40 -58
60 -46 36 23 67 -16 84 -103 3 -21 16 -48 27 -62 20 -27 49 -89 49 -107 0 -6
-11 -16 -25 -22 -28 -12 -32 -41 -14 -82 10 -21 17 -24 40 -19 25 5 30 1 40
-23 6 -16 8 -51 6 -79 -3 -29 1 -72 10 -102 8 -29 13 -67 11 -85 -3 -28 -7
-33 -30 -33 -22 1 -28 -5 -33 -33 -9 -47 2 -72 30 -72 35 0 40 -35 16 -108
-12 -34 -21 -85 -21 -114 0 -91 -18 -120 -59 -98 -15 7 -20 4 -30 -16 -17 -38
-13 -72 9 -84 30 -16 25 -51 -16 -110 -20 -28 -42 -75 -51 -103 -8 -29 -23
-61 -34 -72 -17 -17 -22 -18 -40 -6 -19 11 -24 10 -44 -11 -26 -26 -42 -68
-26 -68 6 0 15 -9 22 -21 10 -19 3 -28 -58 -88 -37 -38 -80 -87 -95 -109 -29
-44 -70 -57 -82 -27 -8 22 -21 19 -61 -16 -34 -30 -35 -32 -18 -51 24 -27 9
-47 -63 -83 -34 -16 -78 -44 -100 -61 -60 -48 -83 -58 -100 -43 -8 6 -14 18
-14 26 0 12 -7 14 -32 9 -44 -9 -63 -30 -63 -69 0 -27 -5 -33 -35 -44 -19 -6
-53 -12 -76 -12 -22 -1 -64 -12 -92 -26 -72 -35 -101 -33 -108 5 -5 24 -12 30
-33 30 -53 0 -70 -10 -73 -44 -3 -27 -7 -31 -37 -34 -19 -2 -53 1 -76 7 -25 6
-62 7 -94 2 -29 -4 -67 -5 -84 -2 -27 6 -32 12 -32 35 0 33 -23 48 -68 44 -24
-2 -33 -8 -35 -26 -5 -34 -43 -33 -112 3 -25 13 -74 28 -109 34 -79 13 -94 25
-87 67 6 28 3 33 -28 48 -44 21 -53 20 -66 -4 -16 -31 -46 -24 -96 22 -24 22
-72 55 -106 72 -76 38 -89 57 -63 86 20 22 20 22 -18 57 -36 33 -40 34 -57 18
-28 -26 -52 -15 -87 40 -18 28 -57 75 -87 106 -60 60 -68 82 -36 99 25 14 19
43 -16 80 -19 19 -26 22 -36 12 -7 -7 -18 -12 -25 -12 -16 0 -48 63 -57 113
-4 21 -21 57 -37 81 -39 55 -44 110 -11 114 25 4 30 34 10 77 -8 18 -19 25
-39 25 -39 0 -53 30 -46 101 3 38 0 73 -10 100 -7 23 -13 58 -11 78 3 31 7 36
29 39 21 2 28 10 33 34 8 39 -3 81 -19 74 -7 -2 -21 1 -32 9 -17 13 -17 15 0
77 11 35 22 97 25 138 8 90 15 104 49 95 31 -7 52 17 53 61 0 23 -5 33 -20 37
-32 8 -26 57 14 108 18 24 41 70 50 102 9 32 26 67 37 78 19 19 22 19 44 5 21
-14 24 -13 38 2 18 21 37 57 37 70 0 5 -9 12 -20 15 -41 11 -18 47 83 135 5 4
25 29 45 56 50 67 68 77 91 50 16 -20 20 -20 44 -8 37 20 51 48 35 74 -19 30
-1 51 71 81 34 14 76 40 94 56 58 55 101 68 112 33 8 -26 51 -26 84 -1 19 14
21 22 13 37 -6 11 -7 26 -3 32 10 16 66 32 110 32 19 0 54 9 78 21 24 12 61
23 82 26 36 5 39 3 49 -26 12 -33 31 -39 76 -21 19 7 26 17 26 35 0 34 29 44
94 33 28 -4 85 -5 127 -2z m-1581 -3367 c0 -5 -27 -50 -60 -100 -84 -123 -83
-119 -17 -119 46 0 59 4 71 22 19 27 26 22 19 -14 l-5 -28 -94 0 c-58 0 -94 4
-94 10 0 6 32 58 70 115 l70 105 -54 0 c-45 0 -58 -4 -70 -22 l-16 -22 0 21
c0 46 6 48 95 45 47 -2 85 -8 85 -13z m1466 -4 c-3 -11 -6 -29 -6 -40 0 -17
-2 -17 -13 5 -9 18 -21 25 -42 25 l-30 0 -3 -98 c-3 -92 -1 -99 18 -104 37
-10 20 -23 -30 -23 -27 0 -50 5 -50 10 0 6 7 10 15 10 12 0 15 18 15 105 l0
105 -30 0 c-22 0 -33 -7 -44 -27 l-15 -28 -1 40 0 40 111 0 c105 0 110 -1 105
-20z m-1308 1 c-12 -9 -18 -27 -18 -55 l0 -41 65 0 65 0 0 41 c0 28 -6 46 -17
55 -16 12 -11 13 37 13 48 0 53 -1 38 -13 -25 -19 -27 -216 -2 -216 8 0 12 -4
9 -10 -3 -5 -26 -10 -51 -10 -24 0 -44 5 -44 10 0 6 7 10 15 10 11 0 15 12 15
50 l0 50 -65 0 -65 0 0 -50 c0 -39 4 -50 16 -50 8 0 12 -4 9 -10 -3 -5 -26
-10 -51 -10 -24 0 -44 5 -44 10 0 6 7 10 15 10 12 0 15 18 15 101 0 85 -3 104
-17 115 -16 12 -11 13 37 13 48 0 53 -1 38 -13z m417 -101 c30 -63 59 -115 64
-115 6 0 11 -4 11 -10 0 -5 -20 -10 -45 -10 -42 0 -62 14 -32 22 10 2 8 15
-10 56 -22 47 -27 52 -57 52 -30 0 -35 -4 -50 -43 -20 -53 -20 -67 -1 -67 8 0
15 -4 15 -10 0 -5 -20 -10 -45 -10 -48 0 -56 8 -27 27 10 6 38 59 63 117 24
58 48 106 52 106 4 0 32 -52 62 -115z m238 41 c32 -41 67 -82 78 -92 19 -17
19 -16 19 56 0 54 -4 78 -17 92 -15 17 -14 18 20 18 21 0 37 -4 37 -10 0 -5
-4 -10 -10 -10 -6 0 -10 -45 -10 -115 0 -66 -4 -115 -9 -115 -6 0 -45 43 -87
95 -42 52 -81 92 -87 88 -13 -8 -3 -156 12 -161 24 -8 9 -22 -24 -22 -39 0
-42 4 -20 26 11 12 15 39 15 105 0 70 -3 91 -15 95 -25 10 -17 24 13 24 22 0
38 -14 85 -74z m357 42 l0 -32 -16 22 c-12 17 -24 22 -47 20 -30 -3 -32 -6
-35 -45 l-3 -43 35 0 c20 0 36 5 36 10 0 6 5 10 10 10 6 0 10 -17 10 -37 -1
-34 -2 -36 -14 -20 -8 10 -26 17 -45 17 -32 0 -32 0 -29 -47 3 -48 3 -48 40
-51 32 -3 40 1 49 22 15 33 27 25 21 -14 l-4 -30 -84 0 c-49 0 -84 4 -84 10 0
6 7 10 15 10 12 0 15 18 15 101 0 85 -3 104 -17 115 -16 11 -6 13 65 14 l82 0
0 -32z m506 -83 c29 -63 58 -115 64 -115 5 0 10 -4 10 -10 0 -13 -77 -13 -85
-1 -3 5 2 11 10 13 12 2 11 12 -10 56 -21 46 -27 52 -55 52 -27 0 -34 -6 -50
-42 -24 -52 -25 -68 -5 -68 8 0 15 -4 15 -10 0 -5 -20 -10 -45 -10 -25 0 -45
5 -45 10 0 6 6 10 14 10 12 0 36 47 94 183 12 26 24 47 27 47 4 0 31 -52 61
-115z m262 99 c25 -17 29 -56 7 -74 -13 -11 -11 -15 10 -32 35 -27 34 -79 -1
-107 -21 -16 -41 -21 -90 -21 -36 0 -64 4 -64 10 0 6 7 10 15 10 12 0 15 18
15 101 0 85 -3 104 -17 115 -16 12 -10 13 42 14 39 0 68 -6 83 -16z m252 -4
c25 -25 25 -41 1 -72 l-19 -24 39 -51 c21 -29 48 -54 59 -58 29 -9 25 -25 -6
-25 -27 0 -70 39 -101 91 -10 16 -25 29 -35 29 -15 0 -18 -9 -18 -50 0 -38 4
-50 15 -50 8 0 15 -4 15 -10 0 -5 -20 -10 -45 -10 -44 0 -60 12 -30 24 12 4
15 26 15 106 0 82 -3 100 -15 100 -8 0 -15 5 -15 10 0 6 27 10 60 10 47 0 64
-4 80 -20z m330 5 c36 -18 60 -62 60 -107 -1 -130 -190 -178 -245 -62 -30 63
-14 122 44 161 40 27 98 30 141 8z m180 6 c0 -5 -4 -11 -9 -13 -6 -1 8 -41 30
-88 l41 -85 15 37 c13 34 13 39 -7 80 -12 23 -29 51 -38 61 -14 16 -13 17 22
17 24 0 36 -4 34 -12 -3 -19 12 -58 23 -58 9 0 13 20 11 53 -1 13 6 17 28 17
31 0 40 -14 15 -23 -8 -4 -22 -23 -30 -44 -15 -36 -15 -40 5 -82 11 -24 22
-42 24 -40 2 2 18 40 35 83 28 74 29 80 13 92 -15 12 -11 13 26 14 47 0 51 -4
23 -28 -10 -10 -36 -60 -56 -112 -21 -52 -41 -99 -46 -104 -4 -5 -18 12 -30
38 -13 25 -26 46 -29 46 -4 0 -13 -18 -20 -41 -8 -22 -17 -42 -22 -45 -5 -3
-31 43 -59 103 -28 59 -57 116 -66 125 -15 17 -14 18 25 18 23 0 42 -4 42 -9z
m468 -26 l4 -30 -26 28 c-28 30 -30 31 -57 17 -34 -18 -22 -47 36 -90 45 -33
55 -46 55 -70 0 -42 -31 -70 -77 -70 -21 0 -43 4 -49 8 -15 10 -26 59 -15 66
5 3 11 -3 14 -13 6 -25 50 -53 70 -45 20 7 31 39 20 58 -4 7 -28 29 -53 48
-53 40 -63 75 -30 108 16 16 31 20 63 18 38 -3 42 -6 45 -33z m-806 -552
c-485 -2 -1279 -2 -1765 0 -485 1 -88 2 883 2 971 0 1368 -1 882 -2z"/>
<path fill="#e9e7da" d="M2914 4579 c-13 -22 13 -31 57 -18 37 10 41 13 24 20 -29 11 -73 11
-81 -2z"/>
<path fill="#e9e7da" d="M3116 4571 c14 -13 75 -31 85 -25 5 3 9 12 9 20 0 10 -13 14 -52 14
-30 0 -48 -4 -42 -9z"/>
<path fill="#e9e7da" d="M2713 4555 c-18 -8 -33 -17 -33 -20 0 -3 23 -5 50 -5 43 0 50 3 50
20 0 24 -21 25 -67 5z"/>
<path fill="#e9e7da" d="M2992 4552 c-28 -9 -51 -21 -49 -27 10 -28 237 -33 237 -5 0 8 -72
37 -110 44 -14 2 -49 -3 -78 -12z"/>
<path fill="#e9e7da" d="M3343 4544 c-8 -22 0 -26 53 -22 l49 3 -48 17 c-42 15 -49 15 -54 2z"/>
<path fill="#e9e7da" d="M2547 4510 c-47 -9 -66 -25 -49 -42 8 -8 21 -5 52 16 22 14 40 28 40
31 0 3 -1 4 -2 4 -2 -1 -20 -5 -41 -9z"/>
<path fill="#e9e7da" d="M2582 4484 c-87 -57 -54 -65 93 -22 115 33 125 58 22 57 -53 0 -69
-5 -115 -35z"/>
<path fill="#e9e7da" d="M2823 4497 c-58 -22 -49 -29 27 -22 76 7 121 25 63 25 -17 0 -37 2
-45 4 -7 3 -27 -1 -45 -7z"/>
<path fill="#e9e7da" d="M3210 4490 l-35 -6 35 -7 c82 -16 140 -24 140 -20 0 6 -84 43 -95 41
-5 0 -26 -4 -45 -8z"/>
<path fill="#e9e7da" d="M3350 4490 c0 -26 211 -93 231 -73 5 5 -15 24 -47 46 -51 33 -64 37
-120 37 -37 0 -64 -4 -64 -10z"/>
<path fill="#e9e7da" d="M3530 4488 c0 -3 18 -17 39 -31 32 -21 41 -24 50 -13 8 10 8 16 -3
25 -15 12 -86 28 -86 19z"/>
<path fill="#e9e7da" d="M2990 4471 c0 -5 16 -21 35 -35 l35 -27 35 27 c19 14 32 30 29 35 -7
12 -134 12 -134 0z"/>
<path fill="#e9e7da" d="M2815 4458 c-56 -9 -62 -12 -89 -55 -34 -53 -37 -49 77 -93 l78 -31
80 56 c43 31 79 58 79 61 0 2 -17 19 -37 39 -42 38 -70 42 -188 23z"/>
<path fill="#e9e7da" d="M3112 4432 l-44 -38 63 -49 c99 -79 91 -77 191 -42 48 17 88 34 88
38 0 5 -12 28 -27 52 -26 43 -27 44 -102 56 -42 7 -87 14 -101 17 -19 3 -36
-6 -68 -34z"/>
<path fill="#e9e7da" d="M2625 4421 l-40 -19 45 -20 c49 -21 56 -19 83 27 l18 31 -33 0 c-18
0 -51 -9 -73 -19z"/>
<path fill="#e9e7da" d="M2305 4406 c-33 -28 -23 -32 38 -15 22 6 37 15 34 22 -7 21 -41 18
-72 -7z"/>
<path fill="#e9e7da" d="M3391 4408 c36 -67 37 -68 78 -50 20 9 39 21 41 26 5 10 -82 45 -113
46 -15 0 -16 -3 -6 -22z"/>
<path fill="#e9e7da" d="M2455 4395 c-34 -16 -65 -39 -65 -48 0 -7 22 1 100 37 49 22 52 25
25 25 -16 0 -43 -6 -60 -14z"/>
<path fill="#e9e7da" d="M2471 4358 c-95 -42 -101 -48 -115 -115 -9 -38 -7 -38 115 -48 l76
-6 56 73 c32 41 57 77 57 80 0 6 -55 40 -81 50 -9 4 -58 -12 -108 -34z"/>
<path fill="#e9e7da" d="M3740 4385 c0 -15 15 -23 70 -40 25 -7 25 -7 -4 24 -31 33 -66 41
-66 16z"/>
<path fill="#e9e7da" d="M3575 4382 c16 -16 145 -72 145 -62 0 14 -82 59 -121 66 -23 5 -31 3
-24 -4z"/>
<path fill="#e9e7da" d="M2291 4362 c-41 -13 -63 -28 -94 -65 -22 -26 -37 -50 -33 -54 16 -16
205 98 206 125 0 16 -13 15 -79 -6z"/>
<path fill="#e9e7da" d="M2976 4329 c-37 -28 -64 -54 -60 -59 5 -4 37 -18 72 -30 l64 -22 74
23 c41 12 74 25 73 28 0 9 -136 111 -146 111 -4 -1 -39 -23 -77 -51z"/>
<path fill="#e9e7da" d="M3493 4352 c-24 -9 -43 -21 -43 -27 0 -5 23 -43 52 -83 l52 -73 100
3 c112 3 106 -2 86 78 -9 32 -18 40 -95 78 -47 23 -91 42 -98 41 -6 0 -31 -8
-54 -17z"/>
<path fill="#e9e7da" d="M3740 4336 c0 -28 173 -143 201 -134 6 2 -7 26 -29 55 -33 41 -52 55
-94 68 -29 10 -59 20 -65 23 -7 2 -13 -3 -13 -12z"/>
<path fill="#e9e7da" d="M2626 4268 c-56 -71 -57 -73 -34 -79 13 -4 47 -7 76 -8 56 -1 88 11
155 60 l39 29 -28 11 c-40 15 -116 45 -135 53 -11 5 -31 -13 -73 -66z"/>
<path fill="#e9e7da" d="M2155 4314 c-32 -17 -46 -34 -39 -46 10 -16 30 -7 57 27 31 39 27 43
-18 19z"/>
<path fill="#e9e7da" d="M3332 4291 c-40 -15 -73 -31 -73 -35 0 -8 75 -67 108 -84 12 -7 54
-12 93 -12 61 0 71 2 66 16 -12 31 -98 144 -109 143 -7 0 -45 -13 -85 -28z"/>
<path fill="#e9e7da" d="M2288 4275 c-35 -24 -54 -43 -47 -50 2 -1 23 -6 45 -10 40 -6 42 -5
53 26 23 65 10 74 -51 34z"/>
<path fill="#e9e7da" d="M3919 4273 c21 -36 51 -64 61 -58 19 12 10 35 -22 55 -41 25 -52 25
-39 3z"/>
<path fill="#e9e7da" d="M3754 4253 c3 -10 8 -30 12 -45 5 -24 11 -28 43 -28 59 0 68 13 30
42 -35 27 -73 48 -84 48 -3 0 -4 -8 -1 -17z"/>
<path fill="#e9e7da" d="M2822 4224 c-29 -19 -50 -39 -47 -44 10 -16 111 -11 175 8 33 9 60
20 60 23 0 6 -120 50 -131 48 -2 0 -28 -16 -57 -35z"/>
<path fill="#e9e7da" d="M3155 4233 c-27 -8 -53 -18 -58 -22 -4 -4 23 -17 60 -29 70 -23 183
-30 183 -12 0 6 -4 10 -9 10 -4 0 -29 16 -54 35 -51 39 -53 39 -122 18z"/>
<path fill="#e9e7da" d="M2133 4202 c-26 -14 -83 -75 -83 -89 0 -8 39 20 85 61 52 47 52 57
-2 28z"/>
<path fill="#e9e7da" d="M2164 4177 c-111 -88 -114 -92 -114 -152 0 -52 1 -55 23 -51 12 3 49
10 82 16 33 6 68 14 77 16 9 3 29 36 46 77 49 120 50 112 -12 123 -53 10 -54
10 -102 -29z"/>
<path fill="#e9e7da" d="M3000 4185 c-34 -13 -32 -13 50 -13 82 0 84 0 50 13 -19 7 -42 13
-50 13 -8 0 -31 -6 -50 -13z"/>
<path fill="#e9e7da" d="M1966 4158 c-14 -18 -23 -34 -21 -36 8 -8 75 40 75 54 0 24 -28 15
-54 -18z"/>
<path fill="#e9e7da" d="M2329 4164 c-7 -16 -23 -53 -36 -83 -13 -30 -21 -56 -19 -59 3 -2 36
1 73 8 63 12 72 17 120 69 29 31 53 62 53 69 0 7 -14 12 -37 12 -21 0 -61 3
-90 6 -50 6 -53 6 -64 -22z"/>
<path fill="#e9e7da" d="M3973 4125 c32 -30 62 -55 68 -55 17 0 -41 68 -76 90 -55 34 -52 22
8 -35z"/>
<path fill="#e9e7da" d="M2503 4118 c-24 -29 -41 -53 -39 -55 17 -17 226 75 226 99 0 4 -33 8
-72 7 l-73 0 -42 -51z"/>
<path fill="#e9e7da" d="M3797 4163 c-10 -3 -16 -10 -13 -16 2 -7 17 -49 32 -94 l28 -81 55
-16 c31 -8 75 -18 99 -22 l42 -7 0 58 c0 48 -4 61 -23 79 -13 11 -44 40 -70
64 -40 36 -52 42 -89 41 -24 -1 -51 -3 -61 -6z"/>
<path fill="#e9e7da" d="M2691 4138 c-48 -31 -29 -32 59 -4 l75 24 -50 1 c-35 0 -60 -6 -84
-21z"/>
<path fill="#e9e7da" d="M2745 4116 c-139 -38 -161 -47 -283 -121 -125 -75 -141 -88 -241
-200 -98 -110 -113 -132 -174 -258 -57 -117 -69 -153 -82 -235 -8 -53 -20
-119 -26 -145 -16 -69 13 -329 46 -412 76 -191 106 -254 142 -295 22 -25 67
-79 100 -120 49 -60 86 -92 190 -162 122 -82 141 -91 285 -138 l155 -50 155 0
c85 0 168 4 184 9 16 5 82 24 148 41 104 28 134 42 250 112 88 54 146 97 176
132 25 28 75 84 113 124 37 40 67 78 67 83 0 5 27 65 60 132 55 110 63 135 82
252 12 72 22 157 22 190 -1 93 -30 297 -47 336 -9 19 -37 84 -62 144 -26 61
-59 124 -74 140 -15 17 -59 68 -96 115 -57 71 -89 99 -199 174 -123 84 -140
91 -281 136 -147 47 -153 48 -305 52 l-155 5 -150 -41z m305 -1097 c0 -371 -3
-558 -10 -554 -6 4 -10 202 -10 561 0 363 3 554 10 554 7 0 10 -194 10 -561z
m400 281 c0 -6 60 -10 160 -10 88 0 160 -2 160 -5 0 -3 -65 -103 -145 -223
l-145 -217 107 -3 c122 -3 156 6 173 49 19 45 32 35 24 -18 -3 -27 -9 -52 -12
-57 -5 -9 -361 0 -370 9 -2 2 62 101 142 219 80 119 146 218 146 221 0 9 -153
5 -195 -5 -37 -8 -67 -33 -78 -63 -2 -6 -7 -9 -11 -6 -6 6 4 61 19 107 5 14
25 16 25 2z m-992 -245 c29 -12 42 -23 42 -36 0 -29 -24 -33 -95 -15 -35 9
-91 16 -125 16 -71 0 -77 13 -17 41 50 23 127 21 195 -6z m335 4 c48 -22 34
-39 -33 -39 -34 0 -90 -7 -125 -16 -68 -17 -95 -14 -95 10 0 15 41 41 90 57
33 11 128 4 163 -12z"/>
<path fill="#e9e7da" d="M2378 3035 c35 -8 73 -16 85 -19 12 -3 4 3 -18 14 -23 11 -59 19 -85
19 l-45 -1 63 -13z"/>
<path fill="#e9e7da" d="M2595 3031 c-44 -21 -36 -27 13 -10 17 6 52 14 79 19 l48 8 -50 1
c-30 0 -66 -7 -90 -18z"/>
<path fill="#e9e7da" d="M3623 4151 l-51 -6 50 -62 c46 -58 55 -65 119 -84 39 -12 72 -19 75
-16 3 3 -7 44 -23 91 l-28 86 -45 -2 c-25 -1 -68 -4 -97 -7z"/>
<path fill="#e9e7da" d="M3282 4145 c8 -8 152 -54 156 -50 2 2 -14 15 -35 29 -26 18 -51 26
-82 26 -24 0 -42 -2 -39 -5z"/>
<path fill="#e9e7da" d="M3415 4140 c14 -22 99 -72 152 -89 32 -10 60 -17 62 -15 4 3 -34 60
-62 92 -18 19 -31 22 -89 22 -43 0 -67 -4 -63 -10z"/>
<path fill="#e9e7da" d="M1964 4108 c-40 -25 -56 -42 -78 -90 -16 -32 -26 -62 -23 -65 16 -16
167 143 167 176 0 16 -10 13 -66 -21z"/>
<path fill="#e9e7da" d="M4080 4126 c0 -15 54 -56 74 -56 5 0 -3 15 -16 33 -28 36 -58 47 -58
23z"/>
<path fill="#e9e7da" d="M4070 4078 c0 -31 121 -178 147 -178 18 0 17 4 -12 69 -19 42 -37 64
-73 89 -52 35 -62 38 -62 20z"/>
<path fill="#e9e7da" d="M1999 4041 c-13 -10 -32 -33 -42 -50 l-18 -31 33 0 c46 0 56 9 64 58
7 47 -1 52 -37 23z"/>
<path fill="#e9e7da" d="M2474 4047 c-25 -7 -52 -25 -69 -44 -15 -18 -24 -33 -20 -33 11 0
124 70 130 81 4 5 5 9 3 8 -2 -1 -22 -6 -44 -12z"/>
<path fill="#e9e7da" d="M1840 4021 c-31 -30 -35 -51 -12 -59 12 -4 57 76 48 85 -3 3 -19 -9
-36 -26z"/>
<path fill="#e9e7da" d="M2322 4010 l-63 -15 -26 -58 c-14 -31 -24 -60 -20 -63 17 -18 186
119 175 143 -1 5 -31 1 -66 -7z"/>
<path fill="#e9e7da" d="M3630 3986 c36 -25 69 -46 73 -46 16 0 -36 62 -60 71 -72 27 -76 20
-13 -25z"/>
<path fill="#e9e7da" d="M4060 3972 c0 -48 2 -52 28 -57 55 -12 62 -13 62 -9 0 15 -32 63 -59
88 l-31 30 0 -52z"/>
<path fill="#e9e7da" d="M2133 3972 l-82 -16 -6 -66 c-3 -36 -8 -77 -10 -92 -6 -36 6 -35 75
5 44 26 61 44 87 92 30 58 41 96 26 94 -5 -1 -45 -9 -90 -17z"/>
<path fill="#e9e7da" d="M3709 3973 c17 -32 75 -89 125 -123 l49 -33 -7 29 c-4 16 -16 48 -26
70 -16 38 -24 44 -73 58 -71 21 -80 21 -68 -1z"/>
<path fill="#e9e7da" d="M4220 3984 c0 -21 30 -84 40 -84 26 0 21 33 -9 63 -17 17 -31 27 -31
21z"/>
<path fill="#e9e7da" d="M1945 3941 c-23 -5 -42 -25 -86 -89 -55 -83 -56 -84 -43 -120 7 -20
13 -45 14 -54 0 -10 3 -18 7 -18 5 0 172 87 179 94 1 0 5 45 9 99 l7 97 -28
-1 c-16 -1 -42 -4 -59 -8z"/>
<path fill="#e9e7da" d="M3860 3941 c0 -6 12 -40 26 -75 23 -58 32 -69 88 -105 34 -23 65 -41
69 -41 9 0 9 49 1 128 l-7 60 -66 16 c-36 8 -76 18 -88 22 -14 4 -23 2 -23 -5z"/>
<path fill="#e9e7da" d="M1853 3907 c-30 -32 -60 -93 -51 -103 3 -2 24 25 48 61 48 73 49 91
3 42z"/>
<path fill="#e9e7da" d="M4061 3823 c1 -115 3 -118 97 -174 l83 -48 9 23 c26 69 23 92 -18
163 -58 98 -61 100 -119 108 l-53 7 1 -79z"/>
<path fill="#e9e7da" d="M4200 3876 c0 -7 64 -119 77 -135 2 -2 5 -2 8 1 10 9 -32 93 -59 117
-14 14 -26 21 -26 17z"/>
<path fill="#e9e7da" d="M2215 3849 c-16 -10 -38 -38 -48 -61 l-18 -43 46 45 c73 71 82 99 20
59z"/>
<path fill="#e9e7da" d="M1704 3825 c-22 -54 -17 -62 21 -25 26 26 32 37 24 47 -18 21 -29 15
-45 -22z"/>
<path fill="#e9e7da" d="M3830 3823 c0 -4 23 -33 50 -63 49 -54 50 -54 38 -20 -6 19 -14 40
-19 45 -12 16 -69 47 -69 38z"/>
<path fill="#e9e7da" d="M1719 3772 c-46 -50 -59 -85 -59 -156 0 -24 2 -27 15 -16 37 30 100
171 93 207 -2 12 -15 3 -49 -35z"/>
<path fill="#e9e7da" d="M2093 3778 c-29 -16 -57 -37 -62 -46 -10 -20 -25 -132 -17 -132 3 0
24 20 47 45 38 41 108 166 91 164 -4 -1 -31 -15 -59 -31z"/>
<path fill="#e9e7da" d="M4341 3791 c-16 -10 -4 -36 30 -66 l22 -20 -7 35 c-8 42 -26 62 -45
51z"/>
<path fill="#e9e7da" d="M3930 3755 c0 -20 65 -137 94 -170 l36 -40 0 40 c0 91 -8 109 -65
143 -53 32 -65 37 -65 27z"/>
<path fill="#e9e7da" d="M4310 3743 c0 -49 76 -213 98 -213 18 0 7 104 -15 140 -32 51 -83 96
-83 73z"/>
<path fill="#e9e7da" d="M1769 3717 c-19 -26 -41 -88 -34 -95 3 -3 23 3 45 13 35 16 39 21 34
44 -16 70 -20 74 -45 38z"/>
<path fill="#e9e7da" d="M1930 3689 c-41 -21 -79 -40 -83 -42 -10 -3 24 -187 34 -187 4 0 29
25 57 55 45 50 50 62 62 130 7 42 11 77 9 79 -2 3 -38 -13 -79 -35z"/>
<path fill="#e9e7da" d="M1622 3651 c-27 -47 -28 -61 -3 -61 14 0 20 10 25 47 3 25 5 48 3 50
-2 1 -13 -15 -25 -36z"/>
<path fill="#e9e7da" d="M4075 3604 c4 -43 12 -86 19 -95 31 -45 89 -100 96 -93 5 5 17 46 28
92 l19 83 -36 18 c-20 10 -58 31 -85 46 l-49 28 8 -79z"/>
<path fill="#e9e7da" d="M4272 3647 c-7 -18 -12 -38 -12 -43 0 -8 33 -29 82 -51 10 -5 -12 68
-30 100 -21 35 -25 34 -40 -6z"/>
<path fill="#e9e7da" d="M1763 3612 c-42 -16 -43 -17 -74 -113 -18 -53 -29 -103 -25 -111 4
-7 17 -30 30 -51 l23 -38 73 69 73 69 -17 96 c-11 59 -22 97 -29 96 -7 -1 -31
-9 -54 -17z"/>
<path fill="#e9e7da" d="M2027 3588 c-23 -30 -44 -119 -25 -100 17 17 67 132 58 132 -5 0 -20
-15 -33 -32z"/>
<path fill="#e9e7da" d="M4432 3575 c2 -38 7 -51 21 -53 24 -5 22 29 -3 70 l-21 33 3 -50z"/>
<path fill="#e9e7da" d="M1669 3549 c-20 -28 -43 -144 -25 -128 7 7 56 159 51 159 -2 0 -14
-14 -26 -31z"/>
<path fill="#e9e7da" d="M4012 3560 c19 -52 54 -130 58 -130 3 0 4 20 2 44 -3 34 -11 51 -34
73 -17 15 -29 21 -26 13z"/>
<path fill="#e9e7da" d="M4245 3558 c-2 -7 -13 -49 -23 -93 l-20 -80 46 -50 c91 -100 93 -101
102 -85 5 8 20 30 33 48 l25 33 -26 98 c-25 98 -25 99 -69 120 -50 24 -62 26
-68 9z"/>
<path fill="#e9e7da" d="M1927 3482 l-47 -48 9 -68 c5 -38 12 -70 14 -72 10 -10 68 132 73
181 4 30 5 55 3 55 -3 0 -26 -22 -52 -48z"/>
<path fill="#e9e7da" d="M4381 3505 c-1 -23 32 -131 42 -141 4 -4 7 10 7 32 -1 40 -49 147
-49 109z"/>
<path fill="#e9e7da" d="M4095 3416 c5 -60 49 -185 61 -174 2 2 10 34 17 70 l14 66 -49 53
-49 54 6 -69z"/>
<path fill="#e9e7da" d="M1549 3443 c-5 -15 -9 -38 -7 -52 3 -26 4 -26 26 9 26 41 28 56 7 64
-11 4 -19 -3 -26 -21z"/>
<path fill="#e9e7da" d="M1575 3380 c-14 -27 -25 -64 -25 -82 0 -55 12 -109 23 -105 28 9 64
237 37 237 -5 0 -21 -22 -35 -50z"/>
<path fill="#e9e7da" d="M1791 3349 l-64 -61 39 -80 c21 -44 42 -82 46 -84 4 -3 24 27 43 67
36 70 36 72 26 139 -6 38 -11 71 -11 74 0 15 -20 1 -79 -55z"/>
<path fill="#e9e7da" d="M4477 3383 c-3 -4 6 -28 19 -53 l24 -45 -3 50 c-1 37 -6 51 -19 53
-9 2 -18 -1 -21 -5z"/>
<path fill="#e9e7da" d="M1646 3362 c-10 -16 -23 -123 -16 -127 4 -2 22 9 41 24 l34 28 -20
38 c-22 41 -31 49 -39 37z"/>
<path fill="#e9e7da" d="M4198 3348 c-3 -7 -11 -43 -18 -79 l-13 -67 34 -73 35 -73 23 40 c13
21 35 58 48 82 l24 43 -61 69 c-34 39 -63 70 -65 70 -2 0 -5 -6 -7 -12z"/>
<path fill="#e9e7da" d="M4447 3353 c-3 -5 -1 -46 3 -93 13 -143 29 -175 49 -102 16 56 13 94
-10 151 -21 48 -32 60 -42 44z"/>
<path fill="#e9e7da" d="M1926 3291 c-17 -32 -21 -88 -7 -109 5 -8 12 13 20 59 6 39 10 74 7
76 -2 3 -12 -9 -20 -26z"/>
<path fill="#e9e7da" d="M4381 3266 c-12 -18 -21 -37 -20 -42 0 -5 16 -22 35 -37 l34 -29 0
40 c0 51 -10 102 -20 102 -5 0 -18 -15 -29 -34z"/>
<path fill="#e9e7da" d="M1516 3239 c-10 -54 -8 -71 11 -67 14 3 17 12 15 43 -5 52 -18 65
-26 24z"/>
<path fill="#e9e7da" d="M1663 3234 l-43 -36 0 -101 0 -102 41 -34 c22 -18 44 -30 48 -25 20
21 91 149 91 162 0 17 -81 172 -89 172 -3 0 -25 -16 -48 -36z"/>
<path fill="#e9e7da" d="M4115 3203 c9 -82 20 -99 29 -44 6 39 -13 111 -29 111 -4 0 -3 -30 0
-67z"/>
<path fill="#e9e7da" d="M1854 3157 l-31 -62 30 -63 c16 -35 31 -61 33 -59 21 21 26 248 5
246 -3 0 -20 -28 -37 -62z"/>
<path fill="#e9e7da" d="M4313 3158 c-17 -29 -39 -68 -49 -86 l-18 -32 45 -91 45 -90 47 38
47 38 0 101 0 102 -40 36 c-22 20 -41 36 -43 36 -1 0 -17 -24 -34 -52z"/>
<path fill="#e9e7da" d="M4515 3155 c-7 -51 -4 -61 20 -51 12 4 14 14 9 43 -10 57 -21 60 -29
8z"/>
<path fill="#e9e7da" d="M1591 3159 c-12 -36 -13 -94 -2 -124 5 -13 10 7 15 63 8 92 4 110
-13 61z"/>
<path fill="#e9e7da" d="M4157 3149 c-14 -55 -17 -128 -10 -184 l8 -60 33 57 c39 70 39 87 3
157 -25 49 -29 52 -34 30z"/>
<path fill="#e9e7da" d="M4446 3037 c-8 -84 -3 -107 14 -63 12 32 12 92 1 121 -6 14 -10 -4
-15 -58z"/>
<path fill="#e9e7da" d="M1782 3028 c-11 -24 -31 -60 -44 -81 l-22 -37 64 -65 c35 -36 67 -61
71 -57 3 4 11 39 18 77 13 69 12 71 -18 138 -17 37 -35 67 -39 67 -4 0 -18
-19 -30 -42z"/>
<path fill="#e9e7da" d="M1505 3030 c-7 -12 4 -78 15 -85 10 -6 24 71 15 85 -8 13 -22 13 -30
0z"/>
<path fill="#e9e7da" d="M1556 3004 c-3 -9 -9 -40 -12 -69 -5 -43 -2 -64 17 -109 12 -31 28
-55 33 -53 21 7 -1 228 -24 242 -4 3 -11 -2 -14 -11z"/>
<path fill="#e9e7da" d="M1907 2975 c-6 -43 11 -115 28 -115 8 0 -5 130 -15 149 -4 8 -10 -5
-13 -34z"/>
<path fill="#e9e7da" d="M4195 2946 l-36 -65 12 -81 c6 -44 14 -80 18 -80 4 0 36 29 71 65
l65 66 -39 72 c-21 40 -42 76 -46 80 -5 5 -24 -21 -45 -57z"/>
<path fill="#e9e7da" d="M1621 2923 c1 -26 4 -59 8 -73 7 -24 7 -24 35 13 32 42 30 56 -13 86
l-31 22 1 -48z"/>
<path fill="#e9e7da" d="M4110 2891 c-14 -82 -8 -101 15 -48 17 40 19 85 6 106 -6 9 -13 -10
-21 -58z"/>
<path fill="#e9e7da" d="M4507 2918 c9 -67 21 -66 30 1 5 36 3 41 -15 41 -18 0 -20 -5 -15
-42z"/>
<path fill="#e9e7da" d="M4474 2942 c-27 -18 -58 -222 -35 -236 17 -11 61 95 60 143 -2 65
-12 102 -25 93z"/>
<path fill="#e9e7da" d="M1885 2865 c-4 -22 -10 -56 -14 -75 -7 -33 -4 -40 42 -90 l49 -55 -6
68 c-4 42 -18 93 -35 130 l-28 62 -8 -40z"/>
<path fill="#e9e7da" d="M4376 2871 c-27 -28 -27 -30 -12 -59 30 -59 47 -46 59 46 6 51 -7 55
-47 13z"/>
<path fill="#e9e7da" d="M1672 2845 l-30 -45 18 -68 c36 -130 33 -125 84 -150 27 -13 50 -21
53 -18 3 2 15 45 27 94 l23 89 -64 72 c-36 39 -68 71 -73 71 -4 0 -22 -20 -38
-45z"/>
<path fill="#e9e7da" d="M1531 2798 c-1 -48 12 -69 32 -49 8 8 5 22 -10 53 l-22 43 0 -47z"/>
<path fill="#e9e7da" d="M4112 2784 c-19 -39 -33 -84 -37 -125 l-7 -64 51 50 52 50 -7 55
c-12 99 -17 102 -52 34z"/>
<path fill="#e9e7da" d="M4256 2761 l-69 -69 16 -88 c9 -48 20 -91 25 -96 7 -7 40 4 91 31 8
4 28 49 44 101 l30 94 -26 45 c-14 25 -29 47 -34 48 -5 2 -39 -28 -77 -66z"/>
<path fill="#e9e7da" d="M1620 2742 c0 -39 36 -129 48 -118 6 7 -28 138 -39 151 -5 5 -9 -9
-9 -33z"/>
<path fill="#e9e7da" d="M4481 2731 c-15 -29 -19 -47 -13 -53 16 -16 31 -1 38 37 10 56 -1 63
-25 16z"/>
<path fill="#e9e7da" d="M1856 2720 c-12 -35 -36 -140 -36 -158 0 -14 16 -29 53 -49 28 -16
62 -35 74 -43 12 -8 25 -12 28 -8 3 3 3 39 -1 79 -6 72 -8 76 -60 134 -37 43
-54 56 -58 45z"/>
<path fill="#e9e7da" d="M1977 2668 c5 -39 49 -116 59 -105 6 6 -46 136 -56 142 -5 3 -6 -14
-3 -37z"/>
<path fill="#e9e7da" d="M4387 2660 c-35 -104 -37 -111 -26 -105 21 14 50 88 47 123 l-3 37
-18 -55z"/>
<path fill="#e9e7da" d="M4113 2618 c-47 -49 -52 -59 -64 -126 -7 -39 -9 -75 -6 -78 6 -6 140
58 159 75 8 7 -22 181 -32 181 -3 0 -29 -24 -57 -52z"/>
<path fill="#e9e7da" d="M4015 2590 c-19 -38 -35 -73 -35 -77 0 -4 15 8 34 26 27 26 35 43 38
77 2 24 2 44 1 44 -2 0 -19 -31 -38 -70z"/>
<path fill="#e9e7da" d="M1580 2595 c0 -17 27 -75 35 -75 3 0 5 20 5 45 0 38 -3 45 -20 45
-11 0 -20 -7 -20 -15z"/>
<path fill="#e9e7da" d="M1635 2554 c4 -32 11 -67 15 -78 13 -31 77 -102 85 -94 20 19 -62
215 -94 226 -11 4 -12 -8 -6 -54z"/>
<path fill="#e9e7da" d="M1714 2543 c20 -57 38 -93 46 -93 11 0 32 79 24 91 -6 10 -65 39 -78
39 -3 0 1 -17 8 -37z"/>
<path fill="#e9e7da" d="M1990 2544 c0 -84 9 -104 67 -141 30 -19 57 -33 59 -30 11 11 -44
120 -83 164 l-42 48 -1 -41z"/>
<path fill="#e9e7da" d="M4407 2503 c-3 -26 -4 -49 -2 -51 1 -1 10 9 19 22 22 35 25 69 5 74
-13 2 -18 -8 -22 -45z"/>
<path fill="#e9e7da" d="M4344 2492 c-40 -61 -77 -159 -63 -167 13 -9 92 81 100 114 9 38 10
101 2 101 -5 0 -22 -22 -39 -48z"/>
<path fill="#e9e7da" d="M1805 2518 c-2 -7 -11 -32 -19 -54 l-14 -42 50 -81 c55 -89 62 -95
127 -105 l43 -7 -4 102 c-3 87 -7 102 -23 112 -112 67 -155 87 -160 75z"/>
<path fill="#e9e7da" d="M3984 2483 c-47 -57 -99 -153 -83 -153 27 0 119 63 123 83 12 59 16
117 8 117 -5 0 -27 -21 -48 -47z"/>
<path fill="#e9e7da" d="M4272 2500 c-39 -18 -42 -22 -36 -47 16 -66 18 -68 42 -38 19 24 46
94 39 101 -1 2 -22 -6 -45 -16z"/>
<path fill="#e9e7da" d="M4113 2424 l-81 -45 -7 -95 c-4 -52 -6 -96 -4 -98 2 -2 27 -2 56 1
l52 5 57 84 57 84 -13 55 c-7 30 -18 55 -24 54 -6 0 -48 -20 -93 -45z"/>
<path fill="#e9e7da" d="M2125 2410 c14 -47 33 -75 64 -93 43 -25 39 -10 -15 54 -60 70 -58
68 -49 39z"/>
<path fill="#e9e7da" d="M1660 2401 c0 -10 9 -29 19 -42 15 -19 22 -21 32 -12 9 9 6 18 -12
42 -28 35 -39 38 -39 12z"/>
<path fill="#e9e7da" d="M2001 2368 c0 -29 4 -73 7 -97 l7 -45 88 -22 c50 -13 87 -18 87 -12
0 6 -12 40 -26 77 -17 44 -35 72 -53 83 -14 9 -45 28 -68 43 l-43 26 1 -53z"/>
<path fill="#e9e7da" d="M1765 2378 c14 -45 37 -86 61 -109 34 -32 30 -15 -16 63 -42 70 -56
85 -45 46z"/>
<path fill="#e9e7da" d="M3837 2326 c-26 -30 -47 -57 -47 -60 0 -15 73 41 86 66 27 53 10 50
-39 -6z"/>
<path fill="#e9e7da" d="M3941 2331 c-60 -35 -67 -43 -98 -111 l-33 -73 42 6 c24 3 66 11 95
17 l52 11 6 67 c3 37 8 79 10 95 3 15 1 27 -3 26 -4 0 -36 -18 -71 -38z"/>
<path fill="#e9e7da" d="M4322 2327 c-28 -29 -31 -36 -18 -46 12 -10 17 -8 29 11 15 24 31 68
25 68 -2 0 -19 -15 -36 -33z"/>
<path fill="#e9e7da" d="M4202 2274 c-24 -36 -42 -67 -40 -69 5 -6 55 41 67 63 19 36 31 72
23 72 -4 0 -26 -30 -50 -66z"/>
<path fill="#e9e7da" d="M2174 2287 c3 -14 14 -45 25 -69 17 -41 21 -44 86 -61 37 -10 69 -16
71 -14 8 8 -120 131 -155 151 l-34 19 7 -26z"/>
<path fill="#e9e7da" d="M3784 2239 c-46 -29 -138 -119 -129 -127 6 -6 115 21 130 32 16 13
67 126 56 126 -4 0 -29 -14 -57 -31z"/>
<path fill="#e9e7da" d="M1820 2231 c0 -5 11 -36 26 -68 21 -48 34 -63 77 -90 89 -54 68 4
-42 120 -44 46 -61 56 -61 38z"/>
<path fill="#e9e7da" d="M1770 2215 c0 -17 59 -86 60 -69 0 6 -7 28 -15 48 -15 36 -45 50 -45
21z"/>
<path fill="#e9e7da" d="M1900 2222 c0 -15 62 -95 78 -100 13 -4 18 83 4 92 -18 11 -82 18
-82 8z"/>
<path fill="#e9e7da" d="M2008 2154 l-3 -57 74 -69 74 -69 56 7 c31 3 57 7 58 8 1 1 -12 44
-30 96 l-32 94 -65 17 c-36 9 -79 20 -97 23 l-31 7 -4 -57z"/>
<path fill="#e9e7da" d="M2340 2193 c1 -21 50 -64 89 -78 24 -8 46 -14 48 -12 2 2 -23 22 -54
43 -81 55 -83 56 -83 47z"/>
<path fill="#e9e7da" d="M4064 2173 c-33 -3 -43 -9 -48 -26 -9 -33 -7 -77 3 -77 11 0 91 89
91 101 0 5 -1 8 -2 7 -2 -1 -22 -3 -44 -5z"/>
<path fill="#e9e7da" d="M4091 2103 c-39 -42 -71 -85 -71 -96 0 -17 5 -16 53 11 41 24 59 42
84 88 37 67 39 74 19 74 -8 0 -46 -35 -85 -77z"/>
<path fill="#e9e7da" d="M4191 2137 c-10 -23 -17 -44 -15 -46 7 -7 64 52 64 65 0 6 -7 15 -15
18 -12 4 -21 -6 -34 -37z"/>
<path fill="#e9e7da" d="M3595 2124 c-70 -44 -70 -45 -30 -38 37 6 117 66 104 78 -3 3 -36
-15 -74 -40z"/>
<path fill="#e9e7da" d="M2230 2146 c0 -21 55 -168 63 -167 4 1 45 1 92 1 47 0 85 3 85 8 0 4
-20 34 -44 66 -42 56 -48 60 -120 81 -48 14 -76 18 -76 11z"/>
<path fill="#e9e7da" d="M3878 2142 l-76 -15 -36 -90 c-20 -50 -33 -94 -29 -98 5 -4 31 -10
58 -13 50 -6 50 -6 128 59 l77 66 0 54 c0 64 4 62 -122 37z"/>
<path fill="#e9e7da" d="M3693 2103 c-56 -13 -68 -21 -113 -71 -27 -31 -50 -59 -50 -63 0 -7
69 -18 143 -22 38 -2 39 -1 58 48 11 28 26 64 34 82 24 50 26 49 -72 26z"/>
<path fill="#e9e7da" d="M2456 2040 l47 -60 66 6 c36 4 67 8 69 9 1 1 -22 18 -50 37 -47 31
-137 68 -168 68 -6 0 10 -27 36 -60z"/>
<path fill="#e9e7da" d="M1907 2039 c23 -39 39 -53 53 -44 19 12 10 30 -25 53 -46 29 -50 28
-28 -9z"/>
<path fill="#e9e7da" d="M2009 2053 c16 -31 57 -70 91 -88 43 -22 36 -10 -31 53 -58 54 -76
65 -60 35z"/>
<path fill="#e9e7da" d="M3509 2056 c-26 -7 -70 -28 -100 -47 l-53 -34 39 -7 c87 -15 98 -12
149 47 52 60 48 64 -35 41z"/>
<path fill="#e9e7da" d="M2640 2015 c24 -18 47 -25 79 -25 24 0 42 2 40 4 -6 6 -130 46 -143
46 -5 0 5 -11 24 -25z"/>
<path fill="#e9e7da" d="M3298 2002 c-74 -22 -82 -32 -25 -32 33 0 57 7 83 25 44 30 27 32
-58 7z"/>
<path fill="#e9e7da" d="M3930 1974 c-68 -57 -76 -75 -20 -43 40 22 103 89 84 89 -5 0 -34
-21 -64 -46z"/>
<path fill="#e9e7da" d="M4062 1994 c-40 -24 -42 -28 -28 -42 11 -11 18 -12 28 -4 13 10 52
72 46 72 -2 0 -23 -12 -46 -26z"/>
<path fill="#e9e7da" d="M2337 1963 c-36 -3 -47 -8 -43 -18 3 -8 10 -32 16 -55 10 -38 16 -43
103 -86 l92 -46 48 22 c26 11 47 25 47 29 0 5 -24 42 -53 82 l-52 74 -55 1
c-30 0 -77 -1 -103 -3z"/>
<path fill="#e9e7da" d="M2520 1962 c0 -11 100 -147 108 -147 4 0 44 13 90 29 94 32 94 33 7
91 -49 32 -59 35 -129 35 -42 0 -76 -3 -76 -8z"/>
<path fill="#e9e7da" d="M2710 1966 c0 -2 26 -22 58 -44 l59 -41 67 20 c37 11 65 23 62 27
-17 16 -128 42 -183 42 -35 0 -63 -2 -63 -4z"/>
<path fill="#e9e7da" d="M2956 1950 c34 -16 46 -17 77 -8 59 18 43 28 -40 27 l-78 -1 41 -18z"/>
<path fill="#e9e7da" d="M2223 1953 c-24 -2 -43 -8 -43 -12 0 -9 45 -43 88 -65 l33 -17 -7 28
c-9 36 -23 74 -26 71 -2 -1 -22 -3 -45 -5z"/>
<path fill="#e9e7da" d="M3135 1955 c-5 -2 -30 -9 -54 -15 -51 -13 -46 -20 30 -48 l56 -20 56
36 c31 20 57 40 57 45 0 7 -126 9 -145 2z"/>
<path fill="#e9e7da" d="M3251 1909 c-34 -23 -60 -44 -58 -46 2 -1 42 -18 89 -37 l85 -33 57
73 c31 40 56 76 56 79 0 3 -38 5 -83 5 -82 0 -85 -1 -146 -41z"/>
<path fill="#e9e7da" d="M3447 1870 c-32 -39 -57 -75 -57 -79 0 -11 75 -51 94 -51 9 0 35 9
59 19 23 11 62 28 87 39 42 17 46 23 59 71 7 29 11 54 9 57 -3 2 -48 7 -100
11 l-95 6 -56 -73z"/>
<path fill="#e9e7da" d="M2119 1903 c50 -67 68 -82 123 -99 32 -10 61 -14 65 -10 18 18 -149
136 -192 136 -14 0 -13 -4 4 -27z"/>
<path fill="#e9e7da" d="M2067 1913 c-15 -15 -5 -30 33 -52 47 -26 49 -22 14 25 -27 34 -35
39 -47 27z"/>
<path fill="#e9e7da" d="M3706 1874 c-14 -41 -14 -45 0 -40 9 3 19 6 23 6 5 0 28 14 52 32
l44 32 -30 7 c-66 15 -72 12 -89 -37z"/>
<path fill="#e9e7da" d="M2913 1892 c-28 -10 -54 -20 -58 -23 -6 -7 133 -122 143 -117 20 9
142 103 142 109 0 11 -120 49 -149 48 -14 -1 -49 -8 -78 -17z"/>
<path fill="#e9e7da" d="M3814 1867 c-67 -37 -134 -87 -134 -102 0 -14 12 -13 80 7 32 10 130
92 130 110 0 14 -34 7 -76 -15z"/>
<path fill="#e9e7da" d="M3881 1844 c-37 -42 -35 -52 6 -30 43 22 57 41 39 55 -11 9 -20 4
-45 -25z"/>
<path fill="#e9e7da" d="M2727 1831 c-43 -16 -80 -31 -83 -34 -3 -3 6 -26 21 -51 23 -40 32
-46 78 -56 109 -24 152 -24 178 -2 13 12 33 27 43 35 18 13 15 18 -58 76 -43
33 -83 61 -89 60 -7 0 -47 -13 -90 -28z"/>
<path fill="#e9e7da" d="M3081 1793 l-74 -55 41 -40 40 -41 101 13 102 12 30 44 c16 24 28 48
24 53 -3 5 -27 17 -53 27 -26 10 -58 24 -72 31 -41 21 -61 15 -139 -44z"/>
<path fill="#e9e7da" d="M2330 1816 c0 -14 70 -56 108 -64 61 -14 51 -1 -25 33 -88 39 -83 37
-83 31z"/>
<path fill="#e9e7da" d="M2231 1774 c17 -20 65 -45 73 -37 15 15 3 31 -33 41 -50 16 -56 15
-40 -4z"/>
<path fill="#e9e7da" d="M2568 1773 c-21 -9 -38 -19 -38 -23 0 -10 81 -40 108 -40 27 0 27 4
1 46 -23 38 -21 38 -71 17z"/>
<path fill="#e9e7da" d="M3595 1766 c-27 -12 -59 -27 -70 -34 -18 -12 -15 -12 20 -7 45 8 86
27 104 49 17 20 8 19 -54 -8z"/>
<path fill="#e9e7da" d="M3346 1737 c-34 -45 -33 -50 12 -43 45 8 92 26 92 35 0 6 -64 41 -75
41 -2 0 -15 -15 -29 -33z"/>
<path fill="#e9e7da" d="M3734 1750 c-54 -12 -64 -18 -58 -35 9 -23 30 -18 66 15 18 16 31 29
28 29 -3 -1 -19 -4 -36 -9z"/>
<path fill="#e9e7da" d="M2460 1717 c0 -3 22 -21 49 -41 41 -30 59 -37 120 -42 70 -7 88 1 59
23 -43 32 -228 81 -228 60z"/>
<path fill="#e9e7da" d="M2948 1691 l-33 -29 48 -7 c25 -4 59 -4 73 -1 l27 7 -29 30 c-35 36
-46 36 -86 0z"/>
<path fill="#e9e7da" d="M2430 1686 c-13 -17 5 -29 59 -40 39 -7 32 7 -17 36 -26 15 -31 16
-42 4z"/>
<path fill="#e9e7da" d="M3415 1685 c-65 -14 -135 -44 -135 -57 0 -4 32 -8 72 -8 63 0 77 4
120 31 77 50 60 60 -57 34z"/>
<path fill="#e9e7da" d="M2710 1672 c0 -13 71 -32 121 -32 51 1 37 14 -26 24 -22 4 -52 9 -67
12 -16 3 -28 1 -28 -4z"/>
<path fill="#e9e7da" d="M3187 1656 c-82 -11 -94 -26 -22 -26 47 0 105 17 105 31 0 5 -1 8 -2
8 -2 -1 -38 -7 -81 -13z"/>
<path fill="#e9e7da" d="M3490 1645 c-34 -25 -34 -25 -8 -25 38 0 80 18 75 33 -6 20 -30 18
-67 -8z"/>
<path fill="#e9e7da" d="M2877 1623 c-14 -14 -5 -21 48 -38 59 -18 114 -15 170 9 l30 14 -28
11 c-30 12 -209 15 -220 4z"/>
<path fill="#e9e7da" d="M2610 1615 c0 -9 59 -35 80 -35 13 0 20 7 20 20 0 17 -7 20 -50 20
-27 0 -50 -2 -50 -5z"/>
<path fill="#e9e7da" d="M3270 1585 c0 -19 46 -19 80 0 24 14 23 14 -27 15 -41 0 -53 -4 -53
-15z"/>
<path fill="#e9e7da" d="M2842 1573 c2 -13 15 -19 46 -21 49 -4 55 11 11 27 -45 16 -61 14
-57 -6z"/>
<path fill="#e9e7da" d="M3105 1582 c-11 -3 -31 -9 -45 -15 l-25 -10 25 -7 c35 -11 53 -11 69
-1 19 12 1 38 -24 33z"/>
<path fill="#e9e7da" d="M2035 1171 c-8 -26 -3 -34 19 -29 12 2 13 7 2 27 l-14 24 -7 -22z"/>
<path fill="#e9e7da" d="M3136 1165 c-8 -22 -3 -28 19 -23 14 3 14 5 2 22 -13 18 -14 18 -21
1z"/>
<path fill="#e9e7da" d="M3407 1213 c-4 -3 -7 -21 -7 -40 0 -29 3 -33 25 -33 30 0 48 35 33
63 -9 17 -39 23 -51 10z"/>
<path fill="#e9e7da" d="M3402 1068 c3 -50 4 -53 33 -56 30 -4 55 17 55 45 0 21 -47 63 -70
63 -19 0 -21 -5 -18 -52z"/>
<path fill="#e9e7da" d="M3650 1176 c0 -38 3 -46 19 -46 26 0 43 24 39 57 -2 22 -9 29 -30 31
-27 3 -28 2 -28 -42z"/>
<path fill="#e9e7da" d="M3921 1194 c-24 -31 -27 -80 -7 -129 17 -40 42 -55 90 -55 49 0 76
36 76 102 0 41 -5 54 -29 79 -40 40 -100 41 -130 3z"/>
</g>
</svg>
